<mxfile host="app.diagrams.net" modified="2023-05-10T17:54:38.769Z" agent="Mozilla/5.0 (Windows NT 10.0; Win64; x64) AppleWebKit/537.36 (KHTML, like Gecko) Chrome/112.0.0.0 Safari/537.36 Edg/112.0.1722.68" etag="WCmV_P8ngIOSdY4S7GlT" version="21.2.9" type="github">
  <diagram name="PÃ¡gina-1" id="-ikT-ChQASj2z9vBUWz-">
    <mxGraphModel dx="737" dy="462" grid="1" gridSize="10" guides="1" tooltips="1" connect="1" arrows="1" fold="1" page="1" pageScale="1" pageWidth="827" pageHeight="1169" math="0" shadow="0">
      <root>
        <mxCell id="0" />
        <mxCell id="1" parent="0" />
        <mxCell id="IcNcH7XDMr2w9UWDDGRt-2" value="BT-INICIAR&amp;nbsp;" style="rounded=0;whiteSpace=wrap;html=1;" vertex="1" parent="1">
          <mxGeometry x="80" y="70" width="120" height="60" as="geometry" />
        </mxCell>
        <mxCell id="IcNcH7XDMr2w9UWDDGRt-8" value="" style="endArrow=classic;html=1;rounded=0;" edge="1" parent="1" source="IcNcH7XDMr2w9UWDDGRt-2" target="IcNcH7XDMr2w9UWDDGRt-12">
          <mxGeometry width="50" height="50" relative="1" as="geometry">
            <mxPoint x="130" y="240" as="sourcePoint" />
            <mxPoint x="149.31818181818187" y="305" as="targetPoint" />
            <Array as="points">
              <mxPoint x="60" y="180" />
            </Array>
          </mxGeometry>
        </mxCell>
        <mxCell id="IcNcH7XDMr2w9UWDDGRt-10" value="&lt;span style=&quot;white-space: pre;&quot;&gt;	&lt;/span&gt;CARREGAR JOGO&amp;nbsp;" style="rounded=0;whiteSpace=wrap;html=1;" vertex="1" parent="1">
          <mxGeometry x="300" y="150" width="120" height="60" as="geometry" />
        </mxCell>
        <mxCell id="IcNcH7XDMr2w9UWDDGRt-11" value="" style="endArrow=classic;html=1;rounded=0;" edge="1" parent="1" source="IcNcH7XDMr2w9UWDDGRt-2" target="IcNcH7XDMr2w9UWDDGRt-10">
          <mxGeometry width="50" height="50" relative="1" as="geometry">
            <mxPoint x="220" y="110" as="sourcePoint" />
            <mxPoint x="270" y="60" as="targetPoint" />
            <Array as="points">
              <mxPoint x="340" y="90" />
            </Array>
          </mxGeometry>
        </mxCell>
        <mxCell id="IcNcH7XDMr2w9UWDDGRt-12" value="NOVO JOGO&amp;nbsp;" style="rounded=0;whiteSpace=wrap;html=1;" vertex="1" parent="1">
          <mxGeometry x="100" y="220" width="120" height="60" as="geometry" />
        </mxCell>
      </root>
    </mxGraphModel>
  </diagram>
</mxfile>
